<svg width="153" height="187" viewBox="0 0 153 187" fill="none" xmlns="http://www.w3.org/2000/svg">
<path d="M34.4301 121.187L33.4454 121.361L34.4301 121.187ZM151.485 169.148C152.013 169.309 152.31 169.868 152.148 170.397L149.516 179.003C149.355 179.531 148.796 179.828 148.268 179.667C147.74 179.505 147.442 178.946 147.604 178.418L149.943 170.768L142.293 168.428C141.765 168.267 141.468 167.708 141.629 167.18C141.791 166.651 142.35 166.354 142.878 166.516L151.485 169.148ZM14.0246 0.844208C7.80087 22.22 4.13009 40.7296 3.11217 55.7225C2.09178 70.7518 3.74895 82.0938 8.01757 89.263C10.1377 92.8238 12.8952 95.3454 16.2983 96.8068C19.7094 98.2716 23.8456 98.7038 28.7675 97.9516C38.6451 96.4421 51.5125 90.1886 67.5236 78.3631L68.7118 79.9718C52.6166 91.8595 39.4315 98.3451 29.0697 99.9287C23.8718 100.723 19.3415 100.29 15.5092 98.6445C11.6689 96.9954 8.60619 94.161 6.29912 90.2862C1.7133 82.5843 0.0881663 70.7371 1.11676 55.5871C2.14782 40.4007 5.85732 21.7409 12.1043 0.285108L14.0246 0.844208ZM67.5236 78.3631C83.4987 66.564 87.6535 56.1747 86.0027 49.2005C84.3625 42.2707 76.7834 37.9621 67.5199 38.7096C58.3375 39.4505 47.7352 45.2106 40.6991 58.165C33.6563 71.1317 30.1634 91.3653 35.4148 121.013L33.4454 121.361C28.1448 91.4361 31.6134 70.7026 38.9416 57.2104C46.2766 43.7058 57.4551 37.5152 67.3591 36.7161C77.1821 35.9235 85.9952 40.4857 87.9489 48.7398C89.8922 56.9497 84.8428 68.0577 68.7118 79.9718L67.5236 78.3631ZM35.4148 121.013C39.6276 144.797 50.4153 166.423 69.0374 177.327C87.6054 188.199 114.285 188.592 150.723 169.221L151.662 170.987C114.878 190.541 87.4152 190.405 68.0268 179.053C48.6924 167.731 37.7098 145.436 33.4454 121.361L35.4148 121.013Z" fill="#EAEAEA" fill-opacity="0.3"/>
</svg>
