<svg width="1108" height="811" viewBox="0 0 1108 811" fill="none" xmlns="http://www.w3.org/2000/svg">
<g filter="url(#filter0_f_107_7)">
<path d="M134.052 401.367C184.052 353.867 206.552 358.867 234.552 211.367C262.552 63.8673 763.052 71.3673 919.552 191.367C1076.05 311.367 997.052 822.867 877.052 686.867C727.052 516.867 467.052 601.367 267.052 686.867C67.0517 772.367 84.0517 448.867 134.052 401.367Z" fill="#E0D3C6" fill-opacity="0.4"/>
<path d="M134.052 401.367C184.052 353.867 206.552 358.867 234.552 211.367C262.552 63.8673 763.052 71.3673 919.552 191.367C1076.05 311.367 997.052 822.867 877.052 686.867C727.052 516.867 467.052 601.367 267.052 686.867C67.0517 772.367 84.0517 448.867 134.052 401.367Z" stroke="black"/>
</g>
<defs>
<filter id="filter0_f_107_7" x="0.923828" y="0.5" width="1106.34" height="809.679" filterUnits="userSpaceOnUse" color-interpolation-filters="sRGB">
<feFlood flood-opacity="0" result="BackgroundImageFix"/>
<feBlend mode="normal" in="SourceGraphic" in2="BackgroundImageFix" result="shape"/>
<feGaussianBlur stdDeviation="50" result="effect1_foregroundBlur_107_7"/>
</filter>
</defs>
</svg>
