<svg width="412" height="261" viewBox="0 0 412 261" fill="none" xmlns="http://www.w3.org/2000/svg">
<rect x="312.017" y="145.631" width="104" height="59" rx="29.5" transform="rotate(18.1039 312.017 145.631)" stroke="#505050"/>
<path d="M342.474 182.542L330.028 182.69L339.976 190.184L339.32 192.192L339 192.087L327.139 183.185L327.99 180.585L342.811 180.431L343.131 180.535L342.474 182.542ZM358.791 182.17L361.05 182.909L360.93 183.274L344.786 197.438L342.527 196.7L342.647 196.335L358.791 182.17ZM376.431 196.421L375.581 199.022L360.752 199.199L360.433 199.094L361.089 197.087L373.543 196.916L363.587 189.445L364.244 187.437L364.563 187.542L376.431 196.421Z" fill="#505050"/>
<rect x="57.7071" y="35.5893" width="90" height="59" rx="29.5" transform="rotate(-22.8401 57.7071 35.5893)" stroke="#505050"/>
<path d="M95.8858 48.6891C96.482 50.1047 96.2241 51.2029 95.112 51.9838C96.4476 51.7338 97.4136 52.3165 98.0098 53.7321L99.2022 56.5632C99.3947 57.0203 99.6986 57.309 100.114 57.4293C100.529 57.5495 101.017 57.4916 101.577 57.2556L104.519 56.0166L105.32 57.9188L102.002 59.3162C100.941 59.7633 99.9675 59.8434 99.0826 59.5563C98.2126 59.263 97.5788 58.6446 97.1813 57.7008L95.8305 54.4937C95.638 54.0366 95.3341 53.7479 94.9189 53.6277C94.5184 53.5012 94.038 53.556 93.4777 53.792L91.8188 54.4907L91.0177 52.5885L92.6765 51.8898C93.2368 51.6538 93.6117 51.3484 93.801 50.9735C94.0051 50.5924 94.0109 50.1733 93.8183 49.7162L92.4675 46.509C92.0701 45.5653 92.0703 44.6798 92.4684 43.8524C92.8812 43.0188 93.6184 42.3784 94.6801 41.9313L97.9978 40.5339L98.799 42.4361L95.8573 43.6751C95.2969 43.9111 94.9147 44.2196 94.7107 44.6007C94.5066 44.9818 94.5008 45.4009 94.6933 45.858L95.8858 48.6891ZM110.958 35.0753L113.148 34.153L113.297 34.5069L110.384 55.786L108.194 56.7082L108.045 56.3544L110.958 35.0753ZM129.527 36.3689L130.328 38.2711L128.669 38.9698C128.109 39.2058 127.727 39.5143 127.523 39.8954C127.333 40.2703 127.335 40.6863 127.527 41.1434L128.878 44.3506C129.276 45.2943 129.268 46.1829 128.855 47.0165C128.457 47.8439 127.727 48.4812 126.666 48.9283L123.348 50.3257L122.547 48.4236L125.489 47.1845C126.049 46.9485 126.431 46.64 126.635 46.2589C126.839 45.8778 126.845 45.4587 126.652 45.0016L125.46 42.1705C124.864 40.7549 125.122 39.6567 126.234 38.8758C124.898 39.1258 123.932 38.5431 123.336 37.1275L122.144 34.2964C121.951 33.8393 121.647 33.5506 121.232 33.4303C120.817 33.3101 120.329 33.368 119.769 33.604L116.827 34.843L116.026 32.9408L119.343 31.5434C120.405 31.0963 121.371 31.0193 122.241 31.3126C123.126 31.5997 123.767 32.2151 124.164 33.1588L125.515 36.3659C125.708 36.823 126.004 37.1148 126.405 37.2413C126.82 37.3615 127.308 37.3036 127.868 37.0676L129.527 36.3689Z" fill="#505050"/>
<rect x="9.38118" y="196.2" width="70" height="54" rx="27" transform="rotate(8.87974 9.38118 196.2)" stroke="#505050"/>
<path d="M47.9953 236.552L46.3221 237.311L44.2524 233.611C42.1909 234.99 39.7691 235.461 36.9868 235.027C34.7105 234.671 32.9498 233.813 31.7049 232.452C30.46 231.092 29.9882 229.447 30.2895 227.519C30.5488 225.859 31.2451 224.616 32.3783 223.789C33.5298 222.948 34.8091 222.638 36.216 222.858C37.4016 223.043 38.2476 223.588 38.754 224.493L38.8429 223.924L35.672 218.255L35.8261 217.113L48.2988 219.061L48.0395 220.721L38.1989 219.184L44.7207 230.769C46.1222 229.158 47.0439 226.938 47.486 224.108L49.4067 224.409C48.8733 227.823 47.6286 230.503 45.6729 232.449L47.9953 236.552ZM37.2462 233.367C39.6016 233.735 41.6384 233.292 43.3565 232.038L40.8125 227.487C40.2686 226.511 39.6998 225.799 39.106 225.35C38.528 224.903 37.7805 224.608 36.8637 224.465C35.6622 224.277 34.6345 224.481 33.7803 225.076C32.9445 225.658 32.4278 226.582 32.2302 227.846C32.0054 229.285 32.3505 230.497 33.2654 231.482C34.1804 232.467 35.5073 233.095 37.2462 233.367Z" fill="#505050"/>
</svg>
