<svg width="191" height="186" viewBox="0 0 191 186" fill="none" xmlns="http://www.w3.org/2000/svg">
<path d="M176.825 99.0875C176.951 97.7883 177.28 96.6707 177.813 95.735C178.344 94.8138 179.043 94.13 179.912 93.6835C180.779 93.2516 181.76 93.0886 182.855 93.1945L183.271 93.2347C184.38 93.342 185.319 93.6906 186.087 94.2806C186.868 94.8867 187.431 95.6926 187.776 96.6984C188.121 97.7043 188.23 98.8642 188.103 100.178C187.978 101.463 187.644 102.558 187.1 103.463C186.569 104.384 185.87 105.06 185.003 105.492C184.134 105.939 183.146 106.108 182.036 106.001L181.62 105.961C180.525 105.855 179.594 105.5 178.828 104.895C178.06 104.305 177.503 103.507 177.158 102.501C176.812 101.51 176.701 100.372 176.825 99.0875ZM178.316 99.2096C178.175 100.669 178.415 101.849 179.035 102.749C179.654 103.664 180.569 104.18 181.781 104.297L182.197 104.337C183.423 104.456 184.428 104.125 185.21 103.346C186.006 102.583 186.475 101.472 186.616 100.012C186.76 98.5231 186.522 97.3286 185.901 96.4288C185.281 95.5289 184.351 95.0189 183.11 94.8989L182.694 94.8587C181.482 94.7415 180.485 95.0724 179.702 95.8514C178.92 96.6304 178.458 97.7498 178.316 99.2096Z" fill="#EAEAEA"/>
<path d="M183.74 119.321C183.382 120.469 182.864 121.414 182.187 122.155C181.52 122.915 180.741 123.417 179.85 123.662C178.974 123.91 178.052 123.884 177.086 123.583L176.603 123.432C175.637 123.13 174.869 122.614 174.298 121.883C173.723 121.166 173.384 120.284 173.28 119.237C173.172 118.205 173.306 117.087 173.682 115.883C174.311 113.867 175.319 112.483 176.705 111.733C178.106 110.987 179.8 110.924 181.788 111.545L183.153 111.971C185.141 112.591 186.489 113.565 187.196 114.892C187.914 116.237 188.019 117.991 187.513 120.153L186.82 123.186C186.738 123.499 186.727 123.733 186.785 123.89C186.84 124.06 186.965 124.176 187.161 124.237L187.35 124.296L186.832 125.956L186.58 125.877C185.964 125.685 185.55 125.363 185.337 124.913C185.138 124.467 185.124 123.871 185.295 123.125L186.079 119.728C186.455 118.079 186.421 116.762 185.975 115.778C185.539 114.812 184.667 114.11 183.36 113.671C183.815 114.428 184.075 115.293 184.14 116.266C184.201 117.253 184.068 118.271 183.74 119.321ZM177.563 121.98C178.628 122.312 179.594 122.168 180.464 121.548C181.343 120.947 181.999 119.953 182.431 118.567C182.741 117.573 182.839 116.62 182.724 115.709C182.623 114.801 182.31 113.982 181.786 113.249L180.925 112.981C179.497 112.535 178.289 112.589 177.303 113.141C176.312 113.707 175.578 114.754 175.102 116.28C174.674 117.652 174.641 118.84 175.003 119.844C175.366 120.849 176.065 121.512 177.101 121.836L177.563 121.98Z" fill="#EAEAEA"/>
<path d="M167.611 130.658C168.23 129.526 168.965 128.64 169.815 128.002C170.666 127.364 171.578 127.01 172.552 126.941C173.526 126.872 174.489 127.098 175.441 127.618L175.827 127.829C176.793 128.357 177.512 129.043 177.987 129.888C178.467 130.752 178.668 131.714 178.589 132.775C178.524 133.842 178.178 134.949 177.552 136.094C176.989 137.123 176.312 137.949 175.521 138.569C174.736 139.21 173.908 139.593 173.037 139.718C172.179 139.851 171.37 139.71 170.611 139.294L170.515 139.242L171.317 137.775L171.413 137.827C171.928 138.109 172.48 138.185 173.069 138.056C173.664 137.946 174.239 137.659 174.794 137.194C175.349 136.728 175.831 136.123 176.239 135.376C176.95 134.077 177.194 132.881 176.972 131.79C176.755 130.719 176.1 129.884 175.006 129.286L174.659 129.096C173.59 128.512 172.547 128.418 171.528 128.813C170.502 129.222 169.634 130.076 168.923 131.376C168.515 132.122 168.265 132.855 168.173 133.573C168.074 134.305 168.132 134.947 168.348 135.5C168.564 136.052 168.93 136.469 169.445 136.751L169.541 136.804L168.739 138.271L168.642 138.218C167.87 137.796 167.308 137.188 166.957 136.394C166.598 135.612 166.477 134.719 166.593 133.712C166.702 132.718 167.041 131.7 167.611 130.658Z" fill="#EAEAEA"/>
<path d="M163.302 155.824L163.116 155.669L158.02 143.121C157.656 142.206 157.525 141.401 157.628 140.704C157.722 140.019 158.107 139.27 158.783 138.459L160.036 136.954L161.135 137.87L159.896 139.357C159.454 139.887 159.205 140.347 159.147 140.738C159.079 141.139 159.178 141.651 159.443 142.273L159.725 142.966L171.635 145.442L171.821 145.597L170.736 146.898L160.336 144.706L164.386 154.522L163.302 155.824Z" fill="#EAEAEA"/>
<path d="M141.727 161.978L139.094 158.647L140.371 157.638L142.117 159.847L151.954 152.069L150.208 149.86L151.467 148.864L154.118 152.181L152.824 153.204C152.912 154.593 153.46 155.936 154.467 157.234L157.646 161.396L149.31 167.986L143.47 160.6L141.727 161.978ZM144.73 159.604L149.669 165.851L155.571 161.185L153.28 158.144C152.737 157.433 152.33 156.754 152.062 156.107C151.781 155.468 151.61 154.838 151.547 154.214L144.73 159.604Z" fill="#EAEAEA"/>
<path d="M141.579 172.964L137.655 165.038L133.831 176.8L132.49 177.464L127.678 167.744L129.098 167.041L133.021 174.967L136.846 163.205L138.187 162.541L142.999 172.261L141.579 172.964Z" fill="#EAEAEA"/>
<path d="M127.319 178.102L127.72 179.521L115.401 183.01L114.999 181.592L120.312 180.087L117.758 171.07L119.346 170.62L121.9 179.637L127.319 178.102Z" fill="#EAEAEA"/>
<path d="M102.514 181.12C101.199 181.237 100.149 181.021 99.3642 180.472C98.5792 179.924 98.1373 179.094 98.0386 177.984L98.0133 177.699C97.9171 176.618 98.2143 175.737 98.9048 175.058C99.5807 174.379 100.569 173.982 101.869 173.866L109.955 173.147L110.914 183.929L109.292 184.073L108.978 180.545L102.514 181.12ZM99.704 177.836C99.7638 178.508 100.036 178.999 100.52 179.309C100.989 179.621 101.648 179.739 102.495 179.664L108.85 179.099L108.46 174.716L102.105 175.281C101.258 175.356 100.631 175.589 100.224 175.978C99.8018 176.369 99.6202 176.893 99.6787 177.551L99.704 177.836Z" fill="#EAEAEA"/>
<path d="M64.3106 179.523L67.4633 169.145L69.021 169.618L66.2904 178.607L74.2894 181.037L77.02 172.049L78.5777 172.522L75.425 182.899L64.3106 179.523Z" fill="#EAEAEA"/>
<path d="M52.1959 174.25C51.0635 173.631 50.1817 172.89 49.5505 172.026C48.9123 171.176 48.565 170.267 48.5087 169.3C48.4395 168.326 48.6688 167.357 49.1965 166.392L49.3865 166.044C49.9143 165.079 50.6103 164.356 51.4747 163.876C52.332 163.409 53.2944 163.208 54.3618 163.274C55.4094 163.345 56.4994 163.69 57.6318 164.309C58.4039 164.732 59.0606 165.258 59.6019 165.888C60.1303 166.511 60.5153 167.198 60.7568 167.949L63.2478 163.394L64.6762 164.175L57.6781 176.972L56.3462 176.244L57.0166 174.88C56.2602 175.102 55.4671 175.161 54.6374 175.059C53.7947 174.949 52.9809 174.679 52.1959 174.25ZM50.6635 167.194C50.0724 168.275 49.9812 169.328 50.3898 170.354C50.7855 171.373 51.6332 172.238 52.933 172.948C53.7565 173.399 54.6066 173.663 55.4833 173.741C56.3471 173.812 57.1162 173.689 57.7908 173.373L59.9018 169.512C59.8043 168.774 59.496 168.054 58.977 167.352C58.4382 166.656 57.7569 166.083 56.9333 165.633C55.6336 164.922 54.4482 164.675 53.3769 164.891C52.2928 165.101 51.4516 165.753 50.8535 166.846L50.6635 167.194Z" fill="#EAEAEA"/>
<path d="M44.4191 155.514C45.416 156.357 46.1476 157.263 46.614 158.234C47.0692 159.194 47.2333 160.159 47.1063 161.127C46.9681 162.086 46.5439 162.985 45.8337 163.825L45.5639 164.144C44.8443 164.996 44.0233 165.569 43.101 165.865C42.1581 166.163 41.175 166.167 40.1517 165.878C39.1284 165.589 38.1127 165.019 37.1046 164.166C36.119 163.333 35.4089 162.435 34.9743 161.473C34.5191 160.512 34.3607 159.552 34.4989 158.593C34.6259 157.625 35.0492 156.715 35.7688 155.864L36.0387 155.545C36.7488 154.705 37.5706 154.142 38.5041 153.855C39.4264 153.559 40.3992 153.556 41.4225 153.845C42.4346 154.124 43.4335 154.681 44.4191 155.514ZM43.4701 156.671C42.35 155.724 41.2435 155.249 40.1506 155.247C39.0465 155.236 38.1015 155.695 37.3156 156.624L37.0457 156.944C36.2503 157.884 35.9502 158.898 36.1454 159.985C36.3199 161.074 36.9671 162.091 38.0872 163.038C39.2297 164.004 40.3474 164.488 41.4403 164.49C42.5333 164.492 43.4822 164.017 44.287 163.065L44.5568 162.746C45.3427 161.816 45.6381 160.808 45.443 159.721C45.2478 158.634 44.5902 157.617 43.4701 156.671Z" fill="#EAEAEA"/>
<path d="M24.9946 142.302L31.7387 150.768C32.5946 150.03 33.0191 149.139 33.0121 148.094C32.996 147.038 32.5493 145.959 31.672 144.858C30.8678 143.849 30.0308 143.175 29.1611 142.836C28.2914 142.498 27.5389 142.553 26.9035 143.003L25.8206 141.644C26.862 140.927 28.0121 140.77 29.2711 141.173C30.5186 141.586 31.7089 142.504 32.8421 143.926C33.6463 144.936 34.1733 145.95 34.4231 146.97C34.673 147.99 34.6469 148.958 34.3449 149.873C34.0224 150.786 33.4309 151.586 32.5705 152.271L32.1919 152.573C31.3316 153.258 30.4202 153.656 29.458 153.766C28.4866 153.865 27.5318 153.679 26.5936 153.207C25.6555 152.736 24.7843 151.995 23.9802 150.985C23.2034 150.01 22.6992 149.024 22.4677 148.028C22.2155 147.028 22.2495 146.082 22.5698 145.19C22.89 144.297 23.4803 143.508 24.3407 142.823L24.9946 142.302ZM25.164 150.071C26.0047 151.126 26.9161 151.788 27.8982 152.055C28.8597 152.321 29.7797 152.169 30.6581 151.601L24.9969 144.494C24.2372 145.212 23.8747 146.063 23.9093 147.048C23.9324 148.042 24.3507 149.05 25.164 150.071Z" fill="#EAEAEA"/>
<path d="M20.7395 125.386L20.9543 125.274L21.8048 126.915L20.0157 133.789L21.6255 136.895L25.8444 134.708L26.5936 136.153L16.9644 141.145L16.2152 139.699L20.3755 137.543L18.7961 134.496L12.3173 132.18L11.4567 130.519L11.6715 130.408L18.6834 132.844L20.7395 125.386Z" fill="#EAEAEA"/>
<path d="M10.8177 125.569L9.40576 125.992L5.73029 113.727L7.14226 113.303L8.72738 118.593L17.705 115.903L18.1786 117.483L9.20103 120.174L10.8177 125.569Z" fill="#EAEAEA"/>
<path d="M14.6893 87.6327C14.5887 88.9341 14.2812 90.0577 13.7668 91.0036C13.2535 91.9348 12.5671 92.632 11.7075 93.0951C10.849 93.5436 9.87143 93.7255 8.7747 93.6407L8.35795 93.6085C7.2466 93.5226 6.30126 93.1921 5.52193 92.6169C4.72911 92.0261 4.15065 91.2311 3.78657 90.2321C3.42248 89.2331 3.2913 88.0755 3.39303 86.7595C3.4925 85.4726 3.80563 84.3715 4.33242 83.456C4.84572 82.5248 5.53159 81.835 6.39004 81.3864C7.24962 80.9233 8.23509 80.7347 9.34644 80.8206L9.7632 80.8528C10.8599 80.9376 11.7974 81.2749 12.5756 81.8646C13.3549 82.4397 13.9266 83.2268 14.2907 84.2258C14.6559 85.2102 14.7888 86.3458 14.6893 87.6327ZM13.1961 87.5393C13.3091 86.077 13.0469 84.9019 12.4094 84.0142C11.7731 83.1118 10.8481 82.6137 9.63434 82.5199L9.21758 82.4876C7.98925 82.3927 6.99135 82.7422 6.22388 83.536C5.44292 84.3142 4.99592 85.4344 4.88289 86.8967C4.76759 88.3882 5.02868 89.5779 5.66616 90.4657C6.30363 91.3534 7.24385 91.8454 8.48681 91.9414L8.90356 91.9737C10.1173 92.0675 11.1079 91.7174 11.8753 90.9236C12.6428 90.1297 13.0831 89.0016 13.1961 87.5393Z" fill="#EAEAEA"/>
<path d="M7.29505 67.8206C7.62718 66.6648 8.1232 65.7085 8.78312 64.952C9.43299 64.1774 10.2003 63.6578 11.0851 63.3931C11.9559 63.1245 12.8775 63.1299 13.8502 63.4094L14.3365 63.5491C15.3092 63.8286 16.0891 64.3274 16.6763 65.0455C17.2675 65.7495 17.6268 66.6233 17.7542 67.6671C17.8856 68.6968 17.7772 69.8177 17.4288 71.03C16.8456 73.0599 15.8694 74.4656 14.5003 75.2473C13.1171 76.0249 11.4247 76.1261 9.42299 75.5509L8.0486 75.156C6.04693 74.5809 4.67739 73.638 3.93999 72.3274C3.19254 70.9986 3.04709 69.2477 3.50363 67.0746L4.1277 64.0264C4.20271 63.7122 4.20911 63.4775 4.14689 63.3223C4.08872 63.153 3.96096 63.04 3.76361 62.9833L3.57331 62.9286L4.05328 61.2582L4.30701 61.3311C4.92725 61.5093 5.34885 61.8212 5.5718 62.2668C5.78066 62.7083 5.80797 63.3036 5.65374 64.0529L4.94753 67.4666C4.6086 69.1241 4.67312 70.4398 5.14106 71.4135C5.59897 72.3691 6.48639 73.0514 7.80334 73.4603C7.33103 72.7142 7.05127 71.8556 6.96409 70.8844C6.88095 69.8991 6.99127 68.8779 7.29505 67.8206ZM13.4096 65.0224C12.3383 64.7146 11.375 64.8804 10.5199 65.5197C9.65467 66.141 9.02158 67.1493 8.62059 68.5449C8.33301 69.5457 8.25704 70.5005 8.39267 71.4093C8.51421 72.3141 8.84541 73.1265 9.38626 73.8465L10.2532 74.0956C11.691 74.5087 12.8969 74.4279 13.8708 73.8532C14.8488 73.2644 15.5585 72.2017 16 70.6652C16.3969 69.2838 16.4027 68.0952 16.0174 67.0994C15.6321 66.1036 14.9179 65.4558 13.8748 65.1561L13.4096 65.0224Z" fill="#EAEAEA"/>
<path d="M23.1681 56.092C22.5741 57.2379 21.8591 58.1393 21.023 58.7962C20.1869 59.4531 19.2827 59.827 18.3106 59.9178C17.3384 60.0086 16.3705 59.8042 15.4069 59.3048L15.0163 59.1023C14.0397 58.596 13.3049 57.9261 12.812 57.0924C12.3127 56.2389 12.0905 55.2812 12.1454 54.2193C12.1872 53.1506 12.5084 52.0369 13.1091 50.878C13.6491 49.8363 14.3075 48.9964 15.0843 48.3583C15.8548 47.7004 16.6741 47.2991 17.5421 47.1543C18.3971 47.0027 19.2087 47.1261 19.977 47.5243L20.0746 47.5749L19.3052 49.0593L19.2075 49.0087C18.6867 48.7387 18.1333 48.6749 17.5474 48.8173C16.9552 48.9398 16.3867 49.2399 15.8418 49.7173C15.297 50.1948 14.8288 50.8112 14.4373 51.5664C13.7556 52.8816 13.538 54.0821 13.7846 55.1681C14.0249 56.2343 14.6985 57.0542 15.8053 57.628L16.1568 57.8102C17.2376 58.3704 18.2829 58.4414 19.2926 58.0232C20.3091 57.5919 21.1582 56.7187 21.8399 55.4036C22.2314 54.6483 22.4652 53.9105 22.5413 53.19C22.6241 52.4565 22.5515 51.8159 22.3233 51.2681C22.0951 50.7203 21.7206 50.3114 21.1998 50.0414L21.1021 49.9908L21.8716 48.5064L21.9692 48.557C22.7505 48.962 23.3256 49.5574 23.6947 50.3434C24.0704 51.1164 24.2116 52.0073 24.1182 53.0162C24.0315 54.012 23.7148 55.0373 23.1681 56.092Z" fill="#EAEAEA"/>
<path d="M26.7672 31.0157L26.9565 31.1664L32.325 43.5999C32.7094 44.5061 32.8577 45.3087 32.7698 46.0075C32.6911 46.6948 32.3227 47.4514 31.6648 48.2774L30.4448 49.8089L29.3263 48.9179L30.5326 47.4036C30.9621 46.8644 31.2016 46.399 31.2512 46.0072C31.3099 45.6039 31.2 45.0945 30.9216 44.4789L30.6247 43.7924L18.6634 41.5771L18.4741 41.4263L19.5296 40.1013L29.9752 42.0655L25.7117 32.3406L26.7672 31.0157Z" fill="#EAEAEA"/>
<path d="M48.1706 24.3392L50.8762 27.6115L49.6215 28.6489L47.8271 26.4786L38.1627 34.4692L39.9571 36.6395L38.7193 37.6629L35.9968 34.4045L37.2684 33.3531C37.1499 31.9668 36.5729 30.636 35.5374 29.3606L32.2688 25.2692L40.4582 18.4982L46.4581 25.755L48.1706 24.3392ZM45.2204 26.7784L40.1457 20.6406L34.347 25.435L36.7044 28.4243C37.2632 29.1232 37.6841 29.7933 37.967 30.4348C38.2613 31.0669 38.4467 31.6939 38.5231 32.3157L45.2204 26.7784Z" fill="#EAEAEA"/>
<path d="M48.2034 13.2225L52.3024 21.0592L55.8647 9.21525L57.1903 8.52188L62.2172 18.1326L60.8136 18.8668L56.7146 11.03L53.1523 22.874L51.8267 23.5674L46.7998 13.9567L48.2034 13.2225Z" fill="#EAEAEA"/>
<path d="M62.415 7.70479L61.9866 6.29443L74.2377 2.57261L74.6662 3.98297L69.3826 5.58808L72.1068 14.5554L70.5281 15.035L67.8038 6.0677L62.415 7.70479Z" fill="#EAEAEA"/>
<path d="M86.5914 4.22075C87.9031 4.0735 88.9577 4.26505 89.7552 4.7954C90.5527 5.32575 91.0136 6.14478 91.1379 7.25249L91.1698 7.5367C91.2909 8.61526 91.0141 9.50234 90.3395 10.1979C89.6795 10.8919 88.7009 11.3117 87.4037 11.4573L79.3364 12.3629L78.1289 1.60645L79.7467 1.42484L80.1419 4.94473L86.5914 4.22075ZM89.4764 7.43901C89.4011 6.76855 89.1179 6.28378 88.6268 5.9847C88.1503 5.68398 87.4894 5.58106 86.644 5.67596L80.3038 6.38767L80.7947 10.7602L87.1349 10.0485C87.9802 9.9536 88.6019 9.70671 88.9999 9.30783C89.4124 8.9073 89.5819 8.3791 89.5083 7.72322L89.4764 7.43901Z" fill="#EAEAEA"/>
<path d="M124.833 4.7559L121.917 15.2025L120.349 14.7648L122.874 5.71671L114.822 3.46895L112.296 12.517L110.728 12.0793L113.645 1.63269L124.833 4.7559Z" fill="#EAEAEA"/>
<path d="M137.487 9.84888C138.633 10.4428 139.531 11.1644 140.181 12.0135C140.838 12.8496 141.205 13.7504 141.283 14.7158C141.374 15.688 141.166 16.6624 140.66 17.639L140.478 17.9906C139.972 18.9672 139.292 19.7051 138.438 20.2043C137.591 20.6905 136.634 20.9127 135.565 20.8709C134.516 20.8228 133.419 20.5018 132.273 19.9078C131.492 19.5029 130.823 18.9913 130.268 18.3731C129.726 17.7617 129.326 17.0835 129.068 16.3385L126.679 20.948L125.233 20.1988L131.946 7.24915L133.293 7.94773L132.653 9.32581C133.405 9.08749 134.196 9.01046 135.028 9.09475C135.873 9.18578 136.693 9.43715 137.487 9.84888ZM139.176 16.8695C139.743 15.7758 139.81 14.7206 139.379 13.7041C138.961 12.6944 138.094 11.8486 136.779 11.1669C135.946 10.735 135.09 10.4896 134.212 10.4309C133.347 10.3789 132.58 10.5186 131.913 10.85L129.888 14.7564C130.002 15.4928 130.326 16.206 130.861 16.896C131.415 17.5797 132.109 18.1376 132.942 18.5695C134.257 19.2512 135.448 19.4719 136.514 19.2317C137.593 18.9981 138.42 18.3279 138.993 17.2211L139.176 16.8695Z" fill="#EAEAEA"/>
<path d="M145.678 28.3732C144.663 27.5525 143.911 26.6621 143.424 25.7021C142.948 24.7513 142.763 23.7906 142.869 22.82C142.986 21.8585 143.39 20.9501 144.082 20.0948L144.345 19.7697C145.046 18.903 145.854 18.3116 146.769 17.9957C147.706 17.6776 148.688 17.6518 149.718 17.9183C150.747 18.1848 151.775 18.733 152.802 19.563C153.805 20.3745 154.535 21.2567 154.99 22.2097C155.466 23.1604 155.646 24.1166 155.528 25.078C155.423 26.0486 155.019 26.9674 154.318 27.8341L154.055 28.1592C153.364 29.0145 152.555 29.5956 151.628 29.9022C150.712 30.2182 149.739 30.2429 148.71 29.9764C147.692 29.7191 146.681 29.1847 145.678 28.3732ZM146.601 27.1961C147.742 28.1183 148.858 28.5684 149.951 28.5467C151.055 28.5341 151.99 28.0545 152.755 27.1079L153.018 26.7828C153.793 25.8248 154.071 24.8047 153.852 23.7224C153.654 22.6379 152.984 21.6346 151.844 20.7124C150.68 19.7718 149.552 19.3124 148.46 19.3342C147.367 19.356 146.429 19.8516 145.645 20.821L145.382 21.146C144.617 22.0926 144.343 23.1071 144.562 24.1894C144.781 25.2717 145.461 26.2739 146.601 27.1961Z" fill="#EAEAEA"/>
<path d="M165.492 41.232L158.565 32.9152C157.725 33.6718 157.32 34.5721 157.35 35.6162C157.389 36.6716 157.859 37.7402 158.76 38.8221C159.586 39.8138 160.438 40.4694 161.315 40.7888C162.192 41.1082 162.943 41.0361 163.568 40.5724L164.681 41.9078C163.655 42.6475 162.509 42.8294 161.241 42.4535C159.985 42.0683 158.775 41.1769 157.611 39.7795C156.785 38.7878 156.236 37.7849 155.964 36.7708C155.692 35.7567 155.697 34.7887 155.979 33.8667C156.281 32.9466 156.855 32.1345 157.7 31.4305L158.072 31.1208C158.917 30.4168 159.82 29.9991 160.779 29.8679C161.748 29.7479 162.707 29.9134 163.655 30.3643C164.603 30.8152 165.49 31.5365 166.317 32.5282C167.114 33.4861 167.64 34.4608 167.893 35.4524C168.167 36.4459 168.154 37.3923 167.853 38.2918C167.553 39.1912 166.98 39.9929 166.134 40.6969L165.492 41.232ZM165.153 33.4688C164.289 32.432 163.364 31.7905 162.376 31.5443C161.409 31.2999 160.493 31.4715 159.627 32.0591L165.442 39.0405C166.186 38.3064 166.529 37.4474 166.473 36.4633C166.429 35.4699 165.988 34.4717 165.153 33.4688Z" fill="#EAEAEA"/>
<path d="M170.043 57.8925L169.831 58.0086L168.944 56.3871L170.58 49.4746L168.902 46.4055L164.733 48.6854L163.952 47.257L173.468 42.0533L174.249 43.4817L170.137 45.73L171.784 48.7412L178.313 50.9132L179.21 52.5539L178.997 52.67L171.933 50.3897L170.043 57.8925Z" fill="#EAEAEA"/>
<path d="M180.01 57.5315L181.412 57.0765L185.365 69.2552L183.963 69.7102L182.258 64.4579L173.344 67.351L172.834 65.7815L181.749 62.8885L180.01 57.5315Z" fill="#EAEAEA"/>
</svg>
